<?xml version="1.0" encoding="iso-8859-1"?>
<!-- Generator: Adobe Illustrator 20.0.0, SVG Export Plug-In . SVG Version: 6.00 Build 0)  -->
<svg version="1.1" id="Layer_1" xmlns="http://www.w3.org/2000/svg" xmlns:xlink="http://www.w3.org/1999/xlink" x="0px" y="0px"
	 viewBox="0 0 35.294 28.005" style="enable-background:new 0 0 35.294 28.005;" xml:space="preserve">
<path style="fill:#01CA6A;" d="M34.628,0h-5.894c-7.452,0-8.04,8.016-11.074,8.016c-0.007,0-0.011,0.005-0.011,0.012
	c0-0.007-0.005-0.012-0.011-0.012C15.121,8.016,14.016,0,6.564,0H0.667C0.299,0,0,0.299,0,0.668v26.669
	c0,0.369,0.299,0.667,0.667,0.667h7.326c0.361,0,0.654-0.293,0.654-0.654v-6.361c0-2.054,1.878-2.961,2.961-2.961h2.313
	c-0.007,3.597-0.241,5.531-1.776,6.118c0,0.86,0,3.859,0,3.859h5.502h5.502c0,0,0-2.998,0-3.859
	c-1.535-0.586-1.769-2.521-1.776-6.118h2.313c1.083,0,2.961,1.02,2.961,2.961v6.361c0,0.361,0.293,0.654,0.654,0.654h7.326
	c0.369,0,0.667-0.299,0.667-0.667V0.668C35.295,0.299,34.996,0,34.628,0z M17.648,9.887c1.829,0,3.312,1.483,3.312,3.312
	s-1.483,3.312-3.312,3.312s-3.312-1.483-3.312-3.312C14.336,11.369,15.819,9.887,17.648,9.887z M17.648,20.782
	c-1.591,0-1.751-2.135-1.764-2.754h3.528C19.399,18.647,19.239,20.782,17.648,20.782z"/>
</svg>
