<?xml version="1.0" encoding="iso-8859-1"?>
<!-- Generator: Adobe Illustrator 20.0.0, SVG Export Plug-In . SVG Version: 6.00 Build 0)  -->
<svg version="1.1" id="Layer_1" xmlns="http://www.w3.org/2000/svg" xmlns:xlink="http://www.w3.org/1999/xlink" x="0px" y="0px"
	 viewBox="0 0 113.466 28.38" style="enable-background:new 0 0 113.466 28.38;" xml:space="preserve">
<path style="fill:#01CA6A;" d="M34.628,0.006h-5.894c-7.452,0-8.04,8.016-11.074,8.016c-0.007,0-0.011,0.005-0.011,0.012
	c0-0.007-0.005-0.012-0.011-0.012c-2.517,0-3.622-8.016-11.074-8.016H0.667C0.299,0.006,0,0.305,0,0.674v26.669
	c0,0.369,0.299,0.667,0.667,0.667h7.326c0.361,0,0.654-0.293,0.654-0.654v-6.361c0-2.054,1.878-2.961,2.961-2.961h2.313
	c-0.007,3.597-0.241,5.531-1.776,6.118c0,0.86,0,3.859,0,3.859h5.502h5.502c0,0,0-2.998,0-3.859
	c-1.535-0.586-1.769-2.521-1.776-6.118h2.313c1.083,0,2.961,1.02,2.961,2.961v6.361c0,0.361,0.293,0.654,0.654,0.654h7.326
	c0.369,0,0.667-0.299,0.667-0.667V0.674C35.295,0.305,34.996,0.006,34.628,0.006z M17.648,9.893c1.829,0,3.312,1.483,3.312,3.312
	s-1.483,3.312-3.312,3.312s-3.312-1.483-3.312-3.312C14.336,11.375,15.819,9.893,17.648,9.893z M17.648,20.788
	c-1.591,0-1.751-2.135-1.764-2.754h3.528C19.399,18.653,19.239,20.788,17.648,20.788z"/>
<path style="fill:#CDD2D3;" d="M48.502,5.481l0.196,7.119h-3.951V0h5.541l2.281,6.78h0.089L54.635,0h5.719v12.6h-4.129l0.125-7.084
	l-0.107-0.018L53.894,12.6h-2.99L48.59,5.481H48.502z"/>
<path style="fill:#CDD2D3;" d="M61.428,11.272c0-0.225,0.044-0.436,0.131-0.632c0.088-0.196,0.209-0.366,0.363-0.513
	c0.154-0.146,0.334-0.263,0.538-0.351c0.204-0.087,0.419-0.131,0.644-0.131c0.216,0,0.423,0.044,0.619,0.131
	c0.196,0.088,0.369,0.204,0.519,0.351c0.15,0.146,0.269,0.317,0.356,0.513s0.131,0.407,0.131,0.632s-0.044,0.438-0.131,0.638
	c-0.088,0.2-0.206,0.371-0.356,0.513s-0.324,0.254-0.519,0.337c-0.196,0.083-0.402,0.125-0.619,0.125
	c-0.225,0-0.44-0.042-0.644-0.125c-0.204-0.083-0.383-0.195-0.538-0.337c-0.154-0.142-0.275-0.312-0.363-0.513
	C61.472,11.709,61.428,11.497,61.428,11.272z"/>
<path style="fill:#CDD2D3;" d="M75.415,11.272c0-0.225,0.044-0.436,0.131-0.632c0.088-0.196,0.209-0.366,0.363-0.513
	c0.154-0.146,0.334-0.263,0.538-0.351c0.204-0.087,0.419-0.131,0.644-0.131c0.216,0,0.423,0.044,0.619,0.131
	c0.196,0.088,0.369,0.204,0.519,0.351c0.15,0.146,0.269,0.317,0.356,0.513c0.087,0.196,0.131,0.407,0.131,0.632
	s-0.044,0.438-0.131,0.638c-0.088,0.2-0.206,0.371-0.356,0.513s-0.324,0.254-0.519,0.337c-0.196,0.083-0.402,0.125-0.619,0.125
	c-0.225,0-0.44-0.042-0.644-0.125c-0.204-0.083-0.383-0.195-0.538-0.337c-0.154-0.142-0.275-0.312-0.363-0.513
	C75.459,11.709,75.415,11.497,75.415,11.272z"/>
<path style="fill:#CDD2D3;" d="M65.82,0h8.667v3.523h-4.681v1.086h4.396v3.292h-4.396v1.174h4.984V12.6h-8.97V0z"/>
<path style="fill:#CDD2D3;" d="M83.93,0h4.503l4.912,12.6h-4.609l-0.659-1.851h-4.005L83.45,12.6h-4.485L83.93,0z M86.12,4.396
	l-1.033,3.115h2.047L86.12,4.396z"/>
<path style="fill:#CDD2D3;" d="M97.67,0h4.218l3.595,6.389h0.071L105.377,0h4.022v12.6h-4.325l-3.488-6.015h-0.071l0.178,6.015
	h-4.022V0H97.67z"/>
<path style="fill:#CDD2D3;" d="M44.177,21.724c0-1.008,0.178-1.922,0.534-2.74c0.356-0.819,0.842-1.519,1.459-2.101
	c0.617-0.581,1.344-1.029,2.18-1.344c0.836-0.314,1.729-0.471,2.678-0.471c0.973,0,1.893,0.157,2.759,0.471
	c0.866,0.314,1.59,0.738,2.171,1.273l-2.598,3.132c-0.238-0.308-0.534-0.542-0.89-0.703c-0.356-0.16-0.754-0.24-1.192-0.24
	c-0.356,0-0.689,0.062-0.997,0.186c-0.309,0.125-0.579,0.306-0.81,0.543c-0.232,0.238-0.413,0.524-0.543,0.863
	c-0.131,0.338-0.196,0.716-0.196,1.131s0.069,0.786,0.205,1.112s0.32,0.608,0.552,0.846c0.231,0.238,0.501,0.418,0.81,0.542
	c0.309,0.125,0.634,0.187,0.979,0.187c0.486,0,0.904-0.101,1.254-0.303c0.35-0.201,0.626-0.439,0.828-0.712l2.598,3.114
	c-0.569,0.57-1.27,1.024-2.1,1.362c-0.831,0.338-1.774,0.507-2.83,0.507c-0.949,0-1.842-0.16-2.678-0.48s-1.563-0.775-2.18-1.362
	s-1.104-1.286-1.459-2.1C44.355,23.626,44.177,22.721,44.177,21.724z"/>
<path style="fill:#CDD2D3;" d="M73.471,22.08c0-0.285-0.098-0.495-0.294-0.632c-0.196-0.136-0.454-0.205-0.774-0.205
	c-0.38,0-0.738,0.081-1.076,0.241c-0.338,0.161-0.638,0.347-0.899,0.561l-2.046-2.029c0.569-0.546,1.246-0.967,2.029-1.264
	c0.783-0.297,1.59-0.446,2.421-0.446c0.89,0,1.626,0.125,2.207,0.375c0.582,0.248,1.041,0.593,1.38,1.032
	c0.338,0.439,0.575,0.949,0.712,1.53c0.137,0.582,0.205,1.199,0.205,1.851v4.93h-3.719v-0.747h-0.035
	c-0.238,0.356-0.576,0.611-1.015,0.765s-0.866,0.232-1.281,0.232c-0.368,0-0.745-0.053-1.13-0.161
	c-0.386-0.106-0.736-0.278-1.05-0.516s-0.572-0.546-0.774-0.926c-0.202-0.38-0.303-0.849-0.303-1.406
	c0-0.653,0.169-1.184,0.507-1.593c0.338-0.409,0.768-0.729,1.29-0.961s1.106-0.388,1.753-0.472c0.647-0.083,1.279-0.124,1.896-0.124
	V22.08H73.471z M73.507,24.145c-0.605,0-1.092,0.065-1.459,0.196c-0.368,0.13-0.552,0.374-0.552,0.729
	c0,0.131,0.03,0.241,0.089,0.329c0.06,0.089,0.137,0.164,0.232,0.223s0.199,0.104,0.312,0.133c0.112,0.03,0.216,0.044,0.312,0.044
	c0.391,0,0.706-0.124,0.943-0.374c0.238-0.249,0.356-0.57,0.356-0.961v-0.32h-0.233C73.507,24.144,73.507,24.145,73.507,24.145z"/>
<path style="fill:#CDD2D3;" d="M84.114,28.38c-0.795,0-1.525-0.118-2.189-0.356s-1.24-0.576-1.726-1.014
	c-0.486-0.439-0.866-0.967-1.139-1.584s-0.41-1.311-0.41-2.082c0-0.759,0.139-1.451,0.418-2.074
	c0.278-0.622,0.667-1.153,1.166-1.592c0.498-0.44,1.082-0.778,1.753-1.014c0.67-0.238,1.397-0.357,2.18-0.357
	c0.32,0,0.644,0.028,0.97,0.081c0.326,0.053,0.641,0.127,0.943,0.222c0.302,0.096,0.581,0.202,0.836,0.32
	c0.255,0.119,0.472,0.249,0.65,0.392l-2.047,2.954c-0.142-0.161-0.329-0.284-0.56-0.37c-0.232-0.086-0.454-0.129-0.667-0.129
	c-0.202,0-0.398,0.033-0.588,0.098c-0.19,0.066-0.359,0.167-0.507,0.303c-0.148,0.137-0.27,0.303-0.365,0.499
	c-0.095,0.195-0.142,0.424-0.142,0.685s0.047,0.489,0.142,0.685s0.216,0.356,0.365,0.48c0.148,0.125,0.317,0.22,0.507,0.285
	c0.19,0.066,0.385,0.099,0.588,0.099c0.237,0,0.468-0.045,0.694-0.134c0.225-0.089,0.409-0.21,0.552-0.365l2.065,2.871
	c-0.391,0.308-0.899,0.567-1.522,0.78C85.457,28.274,84.801,28.38,84.114,28.38z"/>
<path style="fill:#CDD2D3;" d="M95.086,18.414c0.651,0,1.192,0.118,1.624,0.356s0.775,0.543,1.029,0.917s0.431,0.792,0.532,1.254
	c0.101,0.463,0.151,0.926,0.151,1.389v5.695h-4.111v-4.983c0-0.474-0.074-0.807-0.223-0.997c-0.148-0.19-0.371-0.285-0.667-0.285
	c-0.237,0-0.451,0.104-0.641,0.312s-0.284,0.537-0.284,0.988v4.965h-4.111V14.57h4.111v5.126h0.035
	c0.237-0.344,0.574-0.644,1.011-0.899C93.98,18.541,94.495,18.414,95.086,18.414z"/>
<path style="fill:#CDD2D3;" d="M93.718,11.272c0-0.225,0.044-0.436,0.131-0.632c0.088-0.196,0.209-0.366,0.363-0.513
	c0.154-0.146,0.334-0.263,0.538-0.351c0.204-0.087,0.419-0.131,0.644-0.131c0.216,0,0.423,0.044,0.619,0.131
	c0.196,0.088,0.369,0.204,0.519,0.351c0.15,0.146,0.269,0.317,0.356,0.513c0.087,0.196,0.131,0.407,0.131,0.632
	s-0.044,0.438-0.131,0.638c-0.088,0.2-0.206,0.371-0.356,0.513s-0.324,0.254-0.519,0.337c-0.196,0.083-0.402,0.125-0.619,0.125
	c-0.225,0-0.44-0.042-0.644-0.125c-0.204-0.083-0.383-0.195-0.538-0.337c-0.154-0.142-0.275-0.312-0.363-0.513
	C93.762,11.709,93.718,11.497,93.718,11.272z"/>
<path style="fill:#CDD2D3;" d="M110.165,11.272c0-0.225,0.044-0.436,0.131-0.632c0.088-0.196,0.209-0.366,0.363-0.513
	c0.154-0.146,0.334-0.263,0.538-0.351c0.204-0.087,0.419-0.131,0.644-0.131c0.216,0,0.423,0.044,0.619,0.131
	c0.196,0.088,0.369,0.204,0.519,0.351c0.15,0.146,0.269,0.317,0.356,0.513c0.087,0.196,0.131,0.407,0.131,0.632
	s-0.044,0.438-0.131,0.638c-0.088,0.2-0.206,0.371-0.356,0.513s-0.324,0.254-0.519,0.337c-0.196,0.083-0.402,0.125-0.619,0.125
	c-0.225,0-0.44-0.042-0.644-0.125c-0.204-0.083-0.383-0.195-0.538-0.337c-0.154-0.142-0.275-0.312-0.363-0.513
	C110.209,11.709,110.165,11.497,110.165,11.272z"/>
<path style="fill:#CDD2D3;" d="M66.557,21.181c-0.291-0.623-0.683-1.147-1.174-1.575c-0.493-0.427-1.062-0.75-1.709-0.97
	c-0.647-0.219-1.326-0.329-2.038-0.329c-0.7,0-1.374,0.11-2.02,0.329c-0.647,0.22-1.214,0.543-1.7,0.97
	c-0.487,0.428-0.875,0.952-1.166,1.575c-0.291,0.623-0.436,1.332-0.436,2.127c0,0.806,0.145,1.524,0.436,2.153
	s0.679,1.16,1.166,1.593c0.486,0.434,1.053,0.763,1.7,0.988c0.646,0.226,1.319,0.338,2.02,0.338c0.712,0,1.391-0.112,2.038-0.338
	c0.647-0.225,1.216-0.554,1.709-0.988c0.492-0.433,0.884-0.964,1.174-1.593s0.436-1.347,0.436-2.153
	C66.993,22.513,66.847,21.804,66.557,21.181z M63.173,23.988c-0.088,0.2-0.206,0.371-0.356,0.513
	c-0.15,0.142-0.323,0.254-0.519,0.337s-0.402,0.125-0.619,0.125c-0.225,0-0.44-0.042-0.644-0.125s-0.383-0.195-0.538-0.337
	c-0.154-0.142-0.275-0.312-0.363-0.513c-0.087-0.2-0.131-0.413-0.131-0.638s0.044-0.436,0.131-0.632
	c0.088-0.196,0.208-0.366,0.363-0.513c0.154-0.146,0.334-0.263,0.538-0.351c0.204-0.087,0.419-0.131,0.644-0.131
	c0.216,0,0.423,0.044,0.619,0.131c0.196,0.088,0.369,0.204,0.519,0.351c0.15,0.146,0.269,0.317,0.356,0.513
	c0.087,0.196,0.131,0.407,0.131,0.632S63.261,23.788,63.173,23.988z"/>
</svg>
