<svg xmlns="http://www.w3.org/2000/svg" xmlns:xlink="http://www.w3.org/1999/xlink" version="1.1" style="enable-background:new 0 0 35.294 28.005;" xml:space="preserve" width="35.29399871826172" height="28.0049991607666"><rect id="backgroundrect" width="100%" height="100%" x="0" y="0" fill="none" stroke="none" class=""/>

<g class="currentLayer"><title>Layer 1</title><path style="fill:#01CA6A;" d="M354.19601120758057,0 h-60.28737697982788 c-76.22353804779053,0 -82.23795570373534,50.86941142272949 -113.27153252029419,50.86941142272949 c-0.07160021018981937,0 -0.1125146160125733,0.031729922294616714 -0.1125146160125733,0.0761518135070801 c0,-0.0444218912124634 -0.0511430072784424,-0.0761518135070801 -0.1125146160125733,-0.0761518135070801 C154.66668261146546,50.86941142272949 143.3640780029297,0 67.14053995513916,0 H6.822477170944216 C3.0583518352508556,0 0,1.8974493532180792 0,4.239117618560793 v169.24105953502655 c0,2.341668265342713 3.0583518352508556,4.232771634101869 6.822477170944216,4.232771634101869 h74.93473426437379 c3.692525125503541,0 6.689505352020266,-1.859373446464539 6.689505352020266,-4.150273836135866 v-40.36680714321136 c0,-13.03465207862854 19.20931353378296,-18.79045998287201 30.286888910293584,-18.79045998287201 h23.65875516700745 c-0.07160021018981937,22.826506098747252 -2.465092950820923,35.09964004230499 -18.165996185302735,38.824732919693 c0,5.457546634674074 0,24.48915402698517 0,24.48915402698517 h56.277765209197995 h56.277765209197995 c0,0 0,-19.025261407852174 0,-24.48915402698517 c-15.700903234481814,-3.718746892929078 -18.094395975112917,-15.998226820945739 -18.165996185302735,-38.824732919693 h23.65875516700745 c11.07757537651062,0 30.286888910293584,6.472904148101807 30.286888910293584,18.79045998287201 v40.36680714321136 c0,2.2909003896713265 2.9969802265167247,4.150273836135866 6.689505352020266,4.150273836135866 h74.93473426437379 c3.774353937149049,0 6.822477170944216,-1.8974493532180792 6.822477170944216,-4.232771634101869 V4.239117618560793 C361.0184883785248,1.8974493532180792 357.96013654327396,0 354.19601120758057,0 zM180.51435848999023,62.74274834537506 c18.708112062454227,0 33.87712802124024,9.411094952583314 33.87712802124024,21.017900527954104 s-15.169015958786012,21.017900527954104 -33.87712802124024,21.017900527954104 s-33.87712802124024,-9.411094952583314 -33.87712802124024,-21.017900527954104 C146.63723046875,72.14749731349944 161.80624642753602,62.74274834537506 180.51435848999023,62.74274834537506 zM180.51435848999023,131.88224902534486 c-16.27370491600037,0 -17.910281148910524,-13.54867681980133 -18.043252967834476,-17.47684119987488 h36.086505935668946 C198.42463963890077,118.3335722055435 196.7880634059906,131.88224902534486 180.51435848999023,131.88224902534486 z" id="svg_1" class=""/></g></svg>