<svg xmlns="http://www.w3.org/2000/svg" xmlns:xlink="http://www.w3.org/1999/xlink" version="1.1" style="enable-background:new 0 0 35.294 28.005;" xml:space="preserve" width="900" height="650"><rect id="backgroundrect" width="100%" height="100%" x="0" y="0" fill="none" stroke="none" class=""/>

<g class="currentLayer"><title>Layer 1</title><path style="fill:#01CA6A;" d="M883.305204689925,-0.00250244140625 h-150.34656568217676 c-190.08866770674945,0 -205.0876125016459,186.05393890546634 -282.48012697055066,186.05393890546634 c-0.1785588666059113,0 -0.2805925046664316,0.11605160859871962 -0.2805925046664316,0.2785238606369263 c0,-0.16247225203820748 -0.12754204757565066,-0.2785238606369263 -0.2805925046664316,-0.2785238606369263 C385.71266027828216,186.0514364640601 357.5258677640634,-0.00250244140625 167.4372000573139,-0.00250244140625 H17.014109146591785 C7.627014445023904,-0.00250244140625 0,6.937383752797151 0,15.501992467382628 v618.9960699438475 c0,8.56460871458547 7.627014445023904,15.48128458706913 17.014109146591785,15.48128458706913 h186.87460810784307 c9.208535834961967,0 16.68249982289509,-6.80062426388494 16.68249982289509,-15.179550404712456 v-147.64085645929035 c0,-47.67400081235376 47.90479306941431,-68.7257626121614 75.5304005743002,-68.7257626121614 h59.00095120849591 c-0.1785588666059113,83.48752722591846 -6.1475266931463555,128.37628943190296 -45.30293529887104,142.0007482813926 c0,19.96087667897968 0,89.56863151649134 0,89.56863151649134 h140.34726915224576 h140.34726915224576 c0,0 0,-69.5845445157919 0,-89.56863151649134 c-39.155408605724695,-13.601248527769878 -45.12437643226514,-58.513221055474126 -45.30293529887104,-142.0007482813926 h59.00095120849591 c27.625607504885892,0 75.5304005743002,23.674528154138684 75.5304005743002,68.7257626121614 v147.64085645929035 c0,8.378926140827517 7.4739639879331214,15.179550404712456 16.68249982289509,15.179550404712456 h186.87460810784307 c9.412603111083008,0 17.014109146591785,-6.939886194203402 17.014109146591785,-15.48128458706913 V15.501992467382628 C900.3193138365167,6.937383752797151 892.6922993914927,-0.00250244140625 883.305204689925,-0.00250244140625 zM450.1724111230159,229.47794840170073 c46.65488100317294,0 84.48385231411086,34.42090711038007 84.48385231411086,76.87258553579152 s-37.82897131093793,76.87258553579152 -84.48385231411086,76.87258553579152 s-84.48385231411086,-34.42090711038007 -84.48385231411086,-76.87258553579152 C365.688558808905,263.87564519036107 403.51753011984295,229.47794840170073 450.1724111230159,229.47794840170073 zM450.1724111230159,482.35440353830955 c-40.583879538571985,0 -44.665225060992796,-49.554036871653025 -44.99683438468949,-63.92122601617443 h89.99366876937897 C494.83763618400866,432.80036666665643 490.7562906615878,482.35440353830955 450.1724111230159,482.35440353830955 z" id="svg_1" class="selected"/></g></svg>