<svg xmlns="http://www.w3.org/2000/svg" xmlns:xlink="http://www.w3.org/1999/xlink" version="1.1" style="enable-background:new 0 0 513 130.223;" xml:space="preserve" width="360" height="260"><rect id="backgroundrect" width="100%" height="100%" x="0" y="0" fill="none" stroke="none" class=""/>
<linearGradient id="SVGID_1_" gradientUnits="userSpaceOnUse" x1="15.614999771118164" y1="106.52400207519531" x2="91.63390350341797" y2="30.50510025024414" gradientTransform="matrix(1 0 0 -1 0 132)">
	<stop offset="0" style="stop-color:#00FFFF"/>
	<stop offset="1" style="stop-color:#1FB8E5"/>
</linearGradient>



<g class="currentLayer"><title>Layer 1</title><path style="fill:url(#SVGID_1_);" d="M221.93839147979656,78.04667045062689 c-1.3980000000000001,-9.854 -6.09,-18.534 -14.048,-25.961 C196.11339147979658,41.096670450626874 192.02439147979658,37.15567045062688 189.52439147979658,32.528670450626876 C186.21939147979657,26.40867045062688 187.73139147979657,17.616670450626877 193.61539147979656,13.326670450626878 c0.17500000000000004,-0.128 0.258,-0.3580000000000002 0.6290000000000004,-0.8970000000000006 c-1.538,0 -2.773,-0.05200000000000004 -4.001,0.008000000000000007 c-9.461,0.467 -16.502,4.674 -20.713,12.088 c-2.8,4.93 -4.436,10.393 -6.6240000000000006,15.608 c-1.233,2.939 -2.078,6.11 -3.891,8.731 c-3.5380000000000003,5.117 -11.144,4.62 -14.254,-0.7290000000000004 c-0.6930000000000007,-1.191 -1.2,-2.585 -1.302,-3.916 c-0.201,-2.624 -0.05900000000000004,-5.269 -0.05900000000000004,-7.843 C129.11739147979657,53.05467045062689 122.38039147979657,71.65567045062689 128.59439147979657,92.91167045062689 c5.712,19.538 23.993,32.112 39.06,32.112 c1.227,0 11.087,-0.03200000000000003 12.281,-0.08000000000000006 c-2.367,13.273 -8.029,15.202 -11.104,17.687 c5.265,0 10.252,-1.496 15.472,-3.746 c7.929,-3.417 38.04,-16.038 38.04,-49.305 C222.56039147979658,85.30767045062689 222.46939147979657,81.79467045062688 221.93839147979656,78.04667045062689 zM150.71939147979657,92.26067045062689 c-4.286,0 -7.761,-3.475 -7.761,-7.761 s3.475,-7.761 7.761,-7.761 s7.761,3.475 7.761,7.761 S155.00539147979657,92.26067045062689 150.71939147979657,92.26067045062689 zM174.0023914797966,92.26067045062689 c-4.286,0 -7.761,-3.475 -7.761,-7.761 s3.475,-7.761 7.761,-7.761 s7.761,3.475 7.761,7.761 S178.28939147979656,92.26067045062689 174.0023914797966,92.26067045062689 zM197.28639147979658,92.26067045062689 c-4.286,0 -7.761,-3.475 -7.761,-7.761 s3.475,-7.761 7.761,-7.761 s7.761,3.475 7.761,7.761 C205.04739147979657,88.78567045062688 201.57239147979658,92.26067045062689 197.28639147979658,92.26067045062689 z" id="svg_1" class=""/><g id="svg_2" class="">
	<path style="fill:#69FFF7;" d="M157.61039147979656,80.93967045062689 c0.552,1.067 0.8700000000000004,2.275 0.8700000000000004,3.56 c0,4.286 -3.475,7.761 -7.761,7.761 c-2.138,0 -4.074,-0.8650000000000004 -5.478,-2.2640000000000002 c1.291,2.494 3.89,4.201 6.892,4.201 c4.286,0 7.761,-3.475 7.761,-7.761 C159.89339147979658,84.28867045062688 159.02139147979656,82.3446704506269 157.61039147979656,80.93967045062689 z" id="svg_3"/>
	<path style="fill:#69FFF7;" d="M204.17739147979657,80.93967045062689 c0.552,1.067 0.8700000000000004,2.275 0.8700000000000004,3.56 c0,4.286 -3.475,7.761 -7.761,7.761 c-2.138,0 -4.074,-0.8650000000000004 -5.478,-2.2640000000000002 c1.291,2.494 3.89,4.201 6.892,4.201 c4.286,0 7.761,-3.475 7.761,-7.761 C206.46039147979658,84.28867045062688 205.58739147979657,82.3446704506269 204.17739147979657,80.93967045062689 z" id="svg_4"/>
	<path style="fill:#69FFF7;" d="M180.89439147979658,80.93967045062689 c0.552,1.067 0.8700000000000004,2.275 0.8700000000000004,3.56 c0,4.286 -3.475,7.761 -7.761,7.761 c-2.138,0 -4.074,-0.8650000000000004 -5.478,-2.2640000000000002 c1.291,2.494 3.89,4.201 6.892,4.201 c4.286,0 7.761,-3.475 7.761,-7.761 C183.17739147979657,84.28867045062688 182.30439147979658,82.3446704506269 180.89439147979658,80.93967045062689 z" id="svg_5"/>
</g><g id="svg_6" class="">
	<path style="fill:#FFFFFF;" d="M49.29758088473719,211.79166357974682 c0,5.173541329562664 -1.7752435016632078,9.323379909336566 -5.3257305049896235,12.446669485151768 c-3.5522569370269776,3.1232895758152006 -8.058508138656617,4.685883115112782 -13.521408505439759,4.685883115112782 c-3.642523555755615,0 -7.436376442909241,-0.7011272771954543 -11.381558661460877,-2.0995868260264396 c-3.9478371191024784,-1.398459548830986 -7.498324122428895,-3.4648400762081146 -10.65411591053009,-6.197244079351425 l6.009809880256653,-9.176323443889618 c5.099178991317749,4.230482447922229 10.529335584640503,6.3452492961883555 16.29754951477051,6.3452492961883555 c1.7593140983581543,0 3.155791788101196,-0.37380804765224507 4.188548102378846,-1.1223728943467142 c1.0318713474273682,-0.7476160953044892 1.5478070211410524,-1.7409588006138803 1.5478070211410524,-2.9781306131482133 c0,-1.2352743097543717 -0.7132832813262939,-2.3747247291207314 -2.1398498439788822,-3.4164537553191185 c-1.426566562652588,-1.0398315234184266 -3.491194224357605,-2.016096703708172 -6.1912280845642105,-2.928795540869236 c-2.7018037939071653,-0.9089038316011435 -4.765546488761902,-1.6906749769449236 -6.1912280845642105,-2.34151843047142 c-1.4274515295028687,-0.6498947021365176 -3.050480732917786,-1.5939023351669315 -4.870857543945312,-2.8310741477012633 c-3.7044712352752684,-2.4724461222887038 -5.5549369192123415,-6.133677736222744 -5.5549369192123415,-10.981797339022158 s1.8212617778778075,-8.801566644847393 5.463785333633423,-11.860341126143933 c3.642523555755615,-3.057825729906559 8.345237398147583,-4.588161721944809 14.112566361427307,-4.588161721944809 s11.532003026008606,2.0834580523967743 17.30021695613861,6.247527903020382 l-5.099178991317749,9.760754300117492 c-4.249610815048217,-3.1232895758152006 -8.483292226791383,-4.684934363722801 -12.702814168930052,-4.684934363722801 c-4.218636975288391,0 -6.327512979507446,1.2371718125343323 -6.327512979507446,3.708669183433056 c0,1.3671507529616356 0.6672650051116948,2.4411373264193537 2.002679982185364,3.2210109689831734 c1.333645043373108,0.7817711453437811 3.5504870033264155,1.6935212311148646 6.646986012458801,2.733352754533291 c3.0956140422821052,1.0426777775883675 5.295641632080078,1.839628945171833 6.600967736244201,2.391802254140377 c1.3044411373138427,0.5540708117485053 2.8690625286102294,1.416485825240612 4.689439339637756,2.586296289086342 C47.597559565347844,202.92653059177076 49.29758088473719,206.61907100157416 49.29758088473719,211.79166357974682 z" id="svg_7"/>
	<path style="fill:#FFFFFF;" d="M86.72725381736201,174.7467168065754 c5.706266250610352,0 10.790400805473327,2.5549874932169914 15.25151869773865,7.662116225481034 c4.46111789226532,5.109974986433983 6.69211932182312,11.535868150770664 6.69211932182312,19.279576995790006 c0,7.745606347799301 -2.2310014295578,14.218937081634998 -6.69211932182312,19.425684709846976 c-4.46111789226532,5.206747628211976 -9.682422308921815,7.809172690927983 -15.66125834941864,7.809172690927983 c-5.9797210073471065,0 -10.789515838623046,-2.5701675154566765 -14.432039394378663,-7.71240004914999 v25.8686553992033 h-13.656808433532715 V175.62620934508715 h13.656808433532715 v5.8566423303484925 C76.0740228736822,176.9924113466588 81.02098756675169,174.7467168065754 86.72725381736201,174.7467168065754 zM71.70317160014554,201.93318788646138 c0,4.263688746571541 1.1079784965515136,7.745606347799301 3.323935489654541,10.444804052293302 c2.215072026252747,2.7020439586639404 4.900946416854858,4.05116843521595 8.057623171806336,4.05116843521595 c3.1566767549514774,0 5.918658294677735,-1.35007322794199 8.285944619178771,-4.05116843521595 c2.3681712913513184,-2.6991977044940003 3.5522569370269776,-6.164986532092095 3.5522569370269776,-10.395468980014325 c0,-4.22953369653225 -1.1548817396163942,-7.7750176408886915 -3.461105351448059,-10.640246838629245 c-2.3071085786819463,-2.862382943570614 -5.0682051515579225,-4.294997542440892 -8.285944619178771,-4.294997542440892 s-5.933702731132508,1.416485825240612 -8.148774757385254,4.245662470161914 C72.81115009669702,194.12306644414338 71.70317160014554,197.67234539405976 71.70317160014554,201.93318788646138 z" id="svg_8"/>
	<path style="fill:#FFFFFF;" d="M118.34003964309137,168.9394095485059 c-1.5478070211410524,-1.659366181075573 -2.3212680482864383,-3.6925404098033914 -2.3212680482864383,-6.100471437573432 c0,-2.406982276380062 0.7734610271453862,-4.44110525649786 2.3212680482864383,-6.100471437573432 c1.5478070211410524,-1.659366181075573 3.444290981292725,-2.4895236473083497 5.690336847305297,-2.4895236473083497 c2.2451608991622924,0 4.142529826164246,0.8301574662327773 5.690336847305297,2.4895236473083497 c1.5478070211410524,1.659366181075573 2.3221530151367187,3.693489161193371 2.3221530151367187,6.100471437573432 c0,2.4079310277700428 -0.774345993995667,4.44110525649786 -2.3221530151367187,6.100471437573432 c-1.5478070211410524,1.659366181075573 -3.4451759481430058,2.4885748959183696 -5.690336847305297,2.4885748959183696 C121.78433062438408,171.42798444442425 119.88784666423244,170.59877572958146 118.34003964309137,168.9394095485059 zM130.85966567401329,228.14244503466762 h-13.656808433532715 V175.62620934508715 h13.656808433532715 V228.14244503466762 z" id="svg_9"/>
	<path style="fill:#FFFFFF;" d="M157.80071149711057,186.16873479054843 v23.52429071456194 c0,2.017994206488132 0.4858468008041383,3.5976652708053587 1.4566554355621344,4.735218187391758 c0.9699236679077149,1.1385016679763793 2.1248054075241085,1.7087012533545498 3.4593354177474973,1.7087012533545498 c2.5504744625091553,0 4.7044837760925295,-1.2352743097543717 6.4655678081512455,-3.7105666862130167 l5.099178991317749,10.250310017347337 c-4.249610815048217,4.165967353403568 -8.726658110618592,6.247527903020382 -13.43025691986084,6.247527903020382 c-4.7044837760925295,0 -8.681524801254273,-1.659366181075573 -11.927583208084107,-4.978098543226719 c-3.2478283405303956,-3.318732362151146 -4.870857543945312,-7.841430238187313 -4.870857543945312,-13.569042379498482 V186.16873479054843 h-5.736355123519898 V175.62620934508715 h5.736355123519898 V159.91014257006321 h13.747960019111634 v15.716066775023938 h11.836431622505188 v10.542525445461273 H157.80071149711057 z" id="svg_10"/>
	<path style="fill:#FFFFFF;" d="M195.47729018096368,172.59969241104994 v3.5141751484870913 h11.836431622505188 v10.542525445461273 h-11.836431622505188 v41.48605202966928 h-13.747960019111634 V186.6563930049983 h-5.736355123519898 V176.11386755953706 h5.736355123519898 v-3.2210109689831734 c0,-5.725714638531208 1.6230292034149172,-10.265490039587021 4.870857543945312,-13.618377451777457 c3.2469433736801148,-3.3500411580204963 7.284162144660949,-5.0274336155056965 12.110771346092225,-5.0274336155056965 c4.824839267730713,0 9.209850010871888,1.9525303605794906 13.156802163124086,5.857591081738472 l-4.915990853309631,9.858475693285465 c-2.002679982185364,-2.4724461222887038 -4.220406908988953,-3.708669183433056 -6.646986012458801,-3.708669183433056 c-1.3973626565933228,0 -2.549589495658875,0.5369932867288595 -3.461105351448059,1.610979860186578 C195.932163142008,168.9394095485059 195.47729018096368,170.51718311004316 195.47729018096368,172.59969241104994 z" id="svg_11"/>
	<path style="fill:#FFFFFF;" d="M225.368815482897,248.83755910430824 c-4.795635361671448,0 -9.31870093345642,-2.0834580523967743 -13.567426781654358,-6.247527903020382 l6.1912280845642105,-10.835689624965191 c2.3071085786819463,2.406982276380062 4.674394903182983,3.6128452930450443 7.102743940353394,3.6128452930450443 c1.2743522644042968,0 2.367286324501038,-0.6688697299361235 3.277032246589661,-2.0009166814684867 c0.9115158557891846,-1.334893205702305 1.3663888168334961,-2.7504302795529365 1.3663888168334961,-4.246611221551895 s-6.314238476753235,-19.327963316679 -18.93917556285858,-53.492500869870184 h14.568324289321898 l11.927583208084107,32.70061415845156 l11.927583208084107,-32.70061415845156 h14.568324289321898 l-22.763117322921754,61.887053168416024 c-1.3362999439239502,3.5786902430057532 -3.4150870752334597,6.360429318428039 -6.2372463607788085,8.346165977656842 C231.9697832191412,247.84421639899884 228.8281509006445,248.83755910430824 225.368815482897,248.83755910430824 z" id="svg_12"/>
	<path style="fill:#FFFFFF;" d="M295.0059719646398,188.51025322101984 c-4.068192610740662,0 -7.102743940353394,1.5464647656679154 -9.106308889389037,4.637496794223785 c-2.002679982185364,3.09198077994585 -3.004462456703186,7.174458011031151 -3.004462456703186,12.250277947425843 v22.744417071998118 H269.2383921850149 V175.62620934508715 h13.656808433532715 v6.929680152416229 c1.7593140983581543,-2.1470243955254555 3.9602266550064082,-3.9686270642876624 6.600967736244201,-5.466705509066582 c2.640741081237793,-1.4961809419989587 5.326615471839905,-2.2770033359527586 8.058508138656617,-2.3434159332513813 l0.09115158557891852,13.763536414444447 H295.0059719646398 z" id="svg_13"/>
	<path style="fill:#FFFFFF;" d="M346.94910124186913,220.52871513007557 c-5.523078112602233,5.596684449493885 -12.003690357208251,8.395501049935818 -19.439181833267213,8.395501049935818 c-7.436376442909241,0 -13.58247121810913,-2.4563173486590384 -18.43739935874939,-7.369900797367095 c-4.857583041191101,-4.912634697318078 -7.284162144660949,-11.501713100731372 -7.284162144660949,-19.76628645884991 s2.4725973796844483,-14.838471739292146 7.419562072753907,-19.71884888935089 c4.946964693069458,-4.880377150058746 10.790400805473327,-7.3215144764781 17.528538403511046,-7.3215144764781 s12.457678351402283,2.1811794455647466 17.162162127494813,6.539743331134319 C348.6022193181936,185.64787027744921 350.95623113994037,191.63449154822501 350.95623113994037,199.24822145281706 v7.809172690927983 h-35.692483005523684 c0.4238991212844852,2.865229197740555 1.820376811027527,5.206747628211976 4.188548102378846,7.027401545584202 c2.366401357650757,1.8225514201521875 5.036346344947815,2.733352754533291 8.011604895591736,2.733352754533291 c4.7947503948211665,0 8.740817580223084,-1.7238812755942345 11.836431622505188,-5.172592578172684 L346.94910124186913,220.52871513007557 zM333.83831735495966,189.38974575953162 c-1.88232449054718,-1.6916237283349038 -4.174388632774353,-2.538858719587326 -6.8744224929809565,-2.538858719587326 c-2.7018037939071653,0 -5.176171107292175,0.8794925385117531 -7.421332006454467,2.6365801127552984 c-2.2460458660125733,1.757087574243546 -3.5504870033264155,4.1327610547542575 -3.9150933456420898,7.126071690142155 h21.487880091667176 C336.81092100505276,193.48835176424657 335.7188719118063,191.08326699064648 333.83831735495966,189.38974575953162 z" id="svg_14"/>
</g></g></svg>