<svg xmlns="http://www.w3.org/2000/svg" xmlns:xlink="http://www.w3.org/1999/xlink" version="1.1" xml:space="preserve" width="900" height="650"><rect id="backgroundrect" width="100%" height="100%" x="0" y="0" fill="none" stroke="none" class=""/>
<linearGradient id="SVGID_1_" gradientUnits="userSpaceOnUse" x1="15.614999771118164" y1="106.52400207519531" x2="91.63390350341797" y2="30.50510025024414" gradientTransform="matrix(1 0 0 -1 0 132)">
	<stop offset="0" style="stop-color:#00FFFF"/>
	<stop offset="1" style="stop-color:#1FB8E5"/>
</linearGradient>



<g class="currentLayer"><title>Layer 1</title><path style="fill:url(#SVGID_1_);" d="M558.8565087034112,289.6033630749205 c-3.345814773375686,-18.556145599725646 -14.575115858267473,-34.9015224827801 -33.6208912277408,-48.887365122232346 C497.04988028965795,220.02252484578884 487.2637310705355,212.60119647066006 481.2805143799495,203.888056051548 C473.3707019149948,192.3634354842331 476.98935136946125,175.807150512365 491.0714501724244,167.7286174676296 c0.4188251683410198,-0.24103781578697844 0.617467962468475,-0.6741526410292057 1.5053773193514366,-1.6891478184446849 c-3.680874908048502,0 -6.636583953197981,-0.09792161266346028 -9.575539991613821,0.015064863486686174 c-22.642885243853623,0.8794114060353043 -39.49401673122001,8.801646492096376 -49.572146924843054,22.76300872838275 c-6.701202693456309,9.283722123670332 -10.616619695775782,19.571140777141128 -15.853130943376641,29.391548662524652 c-2.9509224717970133,5.534454223421319 -4.9732497132150755,11.505789487956536 -9.312278457228036,16.441415387782083 c-8.467448260517294,9.635863307671618 -26.670786719956112,8.699958663561244 -34.113908283045085,-1.3727856852242781 c-1.6585476666304393,-2.2427815515803986 -2.871944011481281,-4.8678340141354575 -3.1160592524571857,-7.3742506767328635 c-0.4810506219231142,-4.9412752236330535 -0.14120391389782994,-9.922095713918656 -0.14120391389782994,-14.769215540759921 C336.70924612865826,242.54072954251296 320.5856737908672,277.56842025699405 335.45755719698775,317.5957625411191 c13.670453494650872,36.79216285035921 57.42212722289187,60.470362035558146 93.48177757371552,60.470362035558146 c2.9365627517396047,0 26.53436937941075,-0.06025945394674463 29.39195367083462,-0.15064863486686195 c-5.664909562646816,24.994491632348137 -19.215698723485968,28.62700684057533 -26.575055252906733,33.30653006112721 c12.600654350374096,0 24.535975004755034,-2.8171294720103077 37.02893145469858,-7.054122327640783 c18.976370055862528,-6.434579816750816 91.04062516395643,-30.20128507493403 91.04062516395643,-92.84663677638248 C560.345133016029,303.2766097970239 560.1273439284917,296.6612516184328 558.8565087034112,289.6033630749205 zM388.4090249086737,316.3698592748899 c-10.257626694340619,0 -18.57429789425515,-6.543800077029291 -18.57429789425515,-14.614800690021388 s8.316671199914529,-14.614800690021388 18.57429789425515,-14.614800690021388 s18.57429789425515,6.543800077029291 18.57429789425515,14.614800690021388 S398.66665160301443,316.3698592748899 388.4090249086737,316.3698592748899 zM444.1319185914392,316.3698592748899 c-10.257626694340619,0 -18.57429789425515,-6.543800077029291 -18.57429789425515,-14.614800690021388 s8.316671199914529,-14.614800690021388 18.57429789425515,-14.614800690021388 s18.57429789425515,6.543800077029291 18.57429789425515,14.614800690021388 S454.39193857245607,316.3698592748899 444.1319185914392,316.3698592748899 zM499.85720556088086,316.3698592748899 c-10.257626694340619,0 -18.57429789425515,-6.543800077029291 -18.57429789425515,-14.614800690021388 s8.316671199914529,-14.614800690021388 18.57429789425515,-14.614800690021388 s18.57429789425515,6.543800077029291 18.57429789425515,14.614800690021388 C518.4315034551361,309.82605919786073 510.1148322552215,316.3698592748899 499.85720556088086,316.3698592748899 z" id="svg_1" class="selected"/><g id="svg_2" class="">
	<path style="fill:#69FFF7;" d="M403.63463401660164,294.31378302731514 c1.32743295809401,1.8853397001942187 2.0921497709090398,4.01981988560623 2.0921497709090398,6.290355513300298 c0,7.5731639691025485 -8.356575234378054,13.713328409753826 -18.66341881841959,13.713328409753826 c-5.141397942762673,0 -9.797032375498183,-1.528415033428304 -13.173329247172079,-4.00038339385165 c3.104557878440883,4.4067827669019515 9.354554722800179,7.422972896453527 16.57367381736217,7.422972896453527 c10.306843584041532,0 18.66341881841959,-6.140164440651276 18.66341881841959,-13.713328409753826 C409.1247235878492,300.23131128968663 407.027764277237,296.79635311051373 403.63463401660164,294.31378302731514 z" id="svg_3"/>
	<path style="fill:#69FFF7;" d="M515.6175516969711,294.31378302731514 c1.32743295809401,1.8853397001942187 2.0921497709090398,4.01981988560623 2.0921497709090398,6.290355513300298 c0,7.5731639691025485 -8.356575234378054,13.713328409753826 -18.66341881841959,13.713328409753826 c-5.141397942762673,0 -9.797032375498183,-1.528415033428304 -13.173329247172079,-4.00038339385165 c3.104557878440883,4.4067827669019515 9.354554722800179,7.422972896453527 16.57367381736217,7.422972896453527 c10.306843584041532,0 18.66341881841959,-6.140164440651276 18.66341881841959,-13.713328409753826 C521.1076412682185,300.23131128968663 519.0082771877546,296.79635311051373 515.6175516969711,294.31378302731514 z" id="svg_4"/>
	<path style="fill:#69FFF7;" d="M459.6272952417121,294.31378302731514 c1.32743295809401,1.8853397001942187 2.0921497709090398,4.01981988560623 2.0921497709090398,6.290355513300298 c0,7.5731639691025485 -8.356575234378054,13.713328409753826 -18.66341881841959,13.713328409753826 c-5.141397942762673,0 -9.797032375498183,-1.528415033428304 -13.173329247172079,-4.00038339385165 c3.104557878440883,4.4067827669019515 9.354554722800179,7.422972896453527 16.57367381736217,7.422972896453527 c10.306843584041532,0 18.66341881841959,-6.140164440651276 18.66341881841959,-13.713328409753826 C465.1173848129595,300.23131128968663 463.01802073249564,296.79635311051373 459.6272952417121,294.31378302731514 z" id="svg_5"/>
</g><g id="svg_6" class="">
	<path style="fill:#FFFFFF;" d="M207.50136016041364,537.9869398190162 c0,6.9844339970410365 -3.301641259582799,12.586838967343164 -9.904923778748397,16.803372383491904 c-6.606574285127297,4.216533416148742 -14.987410423609655,6.326080966694605 -25.147446064389626,6.326080966694605 c-6.77445434917388,0 -13.830354688072914,-0.9465425864319338 -21.1677010166971,-2.8345043894098323 c-7.342283977566734,-1.8879618029779 -13.945566496732335,-4.6776367058855435 -19.814785206439343,-8.366463023779948 l11.177191322944562,-12.388308384262043 c9.483577735651092,5.711276580378871 19.582715706139652,8.566274449332564 30.31058097531248,8.566274449332564 c3.27201536592752,0 5.86921870970701,-0.5046519337674993 7.789964148357625,-1.5152366437739864 c1.9190995556697628,-1.0093038675349972 2.878649333504644,-2.350345935186192 2.878649333504644,-4.020564518010603 c0,-1.6676568978814288 -1.3265816825641756,-3.2059487061422547 -3.979745047692527,-4.612313739839497 c-2.6531633651283513,-1.4038033487542598 -6.4930083594487265,-2.7217902519186143 -11.514597334018577,-3.953960709493065 c-5.0248807405315485,-1.2270470876884867 -8.863079851871074,-2.2824612841971628 -11.514597334018577,-3.161119219640066 c-2.6548092481092,-0.8773770929714134 -5.6733586349859975,-2.15181535210507 -9.058939926592087,-3.82203393492948 c-6.889666157833299,-3.3378754807058395 -10.331207470788252,-8.280646578190042 -10.331207470788252,-14.825751607509629 s3.3872271745869402,-11.88237560802305 10.16168152376082,-16.0118117361104 c6.77445434917388,-4.128155285615856 15.520676509404684,-6.1941541921310215 26.24689589559666,-6.1941541921310215 s21.447501123441405,2.812730067394484 32.17536639261423,8.434347674768976 l-9.483577735651092,13.177307346700568 c-7.903530074036191,-4.216533416148742 -15.777434254417106,-6.324800124223114 -23.625004307104437,-6.324800124223114 c-7.845924169706484,0 -11.7680633130693,1.6702185828244112 -11.7680633130693,5.006813221058759 c0,1.8456940014186938 1.240995767560036,3.295607679146633 3.7246331856609545,4.348460190712329 c2.480345652139222,1.0554141965086774 6.603282519165598,2.2863038116116363 12.362227069155736,3.6901071603658973 c5.757298667009288,1.4076458761687332 9.848963757399536,2.4835535522212675 12.276641154151594,3.2290038706290947 c2.426031513771209,0.7480120033508102 5.335952623911982,1.9122978099362316 8.721533915518073,3.491576577284773 C204.339618954203,526.0187477654034 207.50136016041364,531.0037866644468 207.50136016041364,537.9869398190162 z" id="svg_7"/>
	<path style="fill:#FFFFFF;" d="M277.1139808354159,487.97516467717435 c10.612653460513405,0 20.068251185490066,3.4493087757255663 28.365147291949135,10.344083799762226 c8.296896106459068,6.8986175514511325 12.446167101179029,15.57376361086044 12.446167101179029,26.0279998631709 c0,10.456797937253445 -4.149270994719958,19.195986120237308 -12.446167101179029,26.225249603780533 c-8.296896106459068,7.029263483543227 -18.0076056934673,10.542614382843347 -29.12719111208215,10.542614382843347 c-11.1212313015957,0 -20.066605302509217,-3.469802255269424 -26.841059651683096,-10.411968450751253 v34.923450827676675 h-25.3992661604595 V489.1625056482467 h25.3992661604595 v7.906640576514638 C257.30084151195734,491.0069188071938 266.5013273749025,487.97516467717435 277.1139808354159,487.97516467717435 zM249.17182546954484,524.6777056977521 c0,5.756106066881061 2.060645492022764,10.456797937253445 6.1819364760682936,14.10079476864566 c4.1196451010646795,3.6478393588066886 9.11489994794095,5.4691973532670515 14.985764540628809,5.4691973532670515 c5.870864592687859,0 11.007665375917131,-1.8226388369318536 15.410402349687809,-5.4691973532670515 c4.404382856751531,-3.6439968313922155 6.606574285127297,-8.32291437974925 6.606574285127297,-14.034190960128122 c0,-5.709995737907381 -2.147877290007754,-10.49650405386967 -6.4370483380998635,-14.36464831777283 c-4.2908169310729605,-3.864301736488687 -9.425971831321382,-5.798373868440267 -15.410402349687809,-5.798373868440267 s-11.03564538659156,1.9122978099362316 -15.15529048765624,5.731770059922729 C251.23247096156769,514.1338104724374 249.17182546954484,518.9254421582856 249.17182546954484,524.6777056977521 z" id="svg_8"/>
	<path style="fill:#FFFFFF;" d="M335.9082126772986,480.1351279091773 c-2.878649333504644,-2.2401934826379564 -4.317151058766542,-4.985038899043411 -4.317151058766542,-8.235817091687855 c0,-3.2494973501729527 1.4385017252618986,-5.995623609049898 4.317151058766542,-8.235817091687855 c2.878649333504644,-2.2401934826379564 6.405776561463737,-3.36093064519268 10.583027566858124,-3.36093064519268 c4.17560512241354,0 7.7043782333534825,1.1207371625547242 10.583027566858124,3.36093064519268 c2.878649333504644,2.2401934826379564 4.31879694174739,4.986319741514902 4.31879694174739,8.235817091687855 c0,3.2507781926444443 -1.4401476082427473,5.995623609049898 -4.31879694174739,8.235817091687855 c-2.878649333504644,2.2401934826379564 -6.4074224444445855,3.3596498027211887 -10.583027566858124,3.3596498027211887 C342.31398923876236,483.49477771189856 338.78686201080325,482.3753213918153 335.9082126772986,480.1351279091773 zM359.19251920736735,560.0609789726941 h-25.3992661604595 V489.1625056482467 h25.3992661604595 V560.0609789726941 z" id="svg_9"/>
	<path style="fill:#FFFFFF;" d="M409.29813479334905,503.3952271914559 v31.75848908062214 c0,2.7243519368615967 0.9035897564860222,4.8569546518942985 2.7091233864772137,6.392684775212143 c1.803887747010343,1.5370109657893352 3.951765037018096,2.306797291155494 6.433756572138167,2.306797291155494 c4.7434347508063945,0 8.749513926192504,-1.6676568978814288 12.02482105808172,-5.009374906001741 l9.483577735651092,13.838222061989981 c-7.903530074036191,5.624179292317478 -16.230052074150542,8.434347674768976 -24.977920117362196,8.434347674768976 c-8.749513926192504,0 -16.14611204212725,-2.2401934826379564 -22.18321081588084,-6.720580447913868 c-6.040390539715291,-4.4803869652759145 -9.058939926592087,-10.586163026874047 -9.058939926592087,-18.318609027265893 V503.3952271914559 h-10.668613481862266 V489.1625056482467 h10.668613481862266 V467.9453501079963 h25.56879210748693 v21.217155540250282 h22.01368486885341 v14.232721543209243 H409.29813479334905 z" id="svg_10"/>
	<path style="fill:#FFFFFF;" d="M479.36995682000804,485.07661816418994 v4.7442405144030815 h22.01368486885341 v14.232721543209243 h-22.01368486885341 v56.00739875089187 h-25.56879210748693 V504.05358022180235 h-10.668613481862266 V489.8208586785929 h10.668613481862266 v-4.348460190712329 c0,-7.7298843154488655 3.0185493868767965,-13.85871554153384 9.058939926592087,-18.38521283578343 c6.038744656734442,-4.522654766835118 13.547262815366908,-6.7871842564314075 22.523908592916555,-6.7871842564314075 c8.973354011587947,0 17.128704181694015,2.6359738063287104 24.4693422762799,7.90792141898613 l-9.142879958615378,13.309234121264153 c-3.7246331856609545,-3.3378754807058395 -7.84921593566818,-5.006813221058759 -12.362227069155736,-5.006813221058759 c-2.5988492267603402,0 -4.741788867825546,0.7249568388639712 -6.4370483380998635,2.1748705165919104 C480.21594067216427,480.1351279091773 479.36995682000804,482.265168939267 479.36995682000804,485.07661816418994 z" id="svg_11"/>
	<path style="fill:#FFFFFF;" d="M534.9629462641398,587.9999958033299 c-8.919039873219935,0 -17.331147788338424,-2.812730067394484 -25.233031979393765,-8.434347674768976 l11.514597334018577,-14.628501866899997 c4.2908169310729605,3.2494973501729527 8.693553904843645,4.8774481314381575 13.209856804292896,4.8774481314381575 c2.370071492422348,0 4.4027369737706845,-0.9029939424012349 6.094704678083303,-2.7012967723747576 c1.6952594702743191,-1.8021453573879955 2.541243322430629,-3.7131623248527355 2.541243322430629,-5.73305090239422 s-11.743375068356567,-26.093322829216948 -35.22354167314631,-72.2164602276119 h27.094525630733816 l22.18321081588084,44.14679746488418 l22.18321081588084,-44.14679746488418 h27.094525630733816 l-42.3354020333942,83.54935441536529 c-2.485283301081768,4.8313378024644775 -6.3514624230957235,8.586767928876418 -11.600183249022717,11.26757122170732 C547.2395874182913,586.6589537356786 541.396702836278,587.9999958033299 534.9629462641398,587.9999958033299 z" id="svg_12"/>
	<path style="fill:#FFFFFF;" d="M664.4758321441552,506.5563464110959 c-7.56612406296218,0 -13.209856804292896,2.0877732285305144 -16.936135872934695,6.260758000648559 c-3.7246331856609545,4.174265614589536 -5.5877727199818565,9.685730769415793 -5.5877727199818565,16.538237991893247 v30.70563656905644 H616.5526573907792 V489.1625056482467 h25.3992661604595 v9.355273411771087 c3.27201536592752,-2.898546512984388 7.365326339298618,-5.357764058247324 12.276641154151594,-7.380214320731792 c4.911314814852978,-2.0198885775414843 9.906569661729247,-3.0740219315786703 14.987410423609655,-3.1636809045830483 l0.16952594702743204,18.58118173392157 H664.4758321441552 z" id="svg_13"/>
	<path style="fill:#FFFFFF;" d="M761.0809337050785,549.782218138978 c-10.271955683477692,7.555689739326073 -22.324756752233846,11.334175030224856 -36.15346555732591,11.334175030224856 c-13.830354688072914,0 -25.261011990068198,-3.3161011586904903 -34.290326023005,-9.949584318542962 c-9.034251681879354,-6.6322023173809805 -13.547262815366908,-15.527653281886758 -13.547262815366908,-26.685072051045843 s4.598597048491696,-20.032376254121004 13.799082911436784,-26.621029927471284 c9.200485862945088,-6.588653673350284 20.068251185490066,-9.884261352496917 32.60000420167323,-9.884261352496917 s23.16909472140931,2.944656841958068 31.918608647601808,8.828847155988239 C764.155443113304,502.69204467460725 768.5334918423622,510.77416066971625 768.5334918423622,521.0529215034322 v10.542614382843347 h-66.38175238359595 c0.7883779478266009,3.8681442639031602 3.3855812916060923,7.029263483543227 7.789964148357625,9.48720018633467 c4.401091090789834,2.460498387734427 9.366720044010822,3.6901071603658973 14.900178625624667,3.6901071603658973 c8.917393990239086,0 16.256386201844123,-2.327290770699352 22.01368486885341,-6.983153154569547 L761.0809337050785,549.782218138978 zM736.6971773438028,507.7436873821681 c-3.5007931002655104,-2.2837421266686535 -7.763630020664041,-3.4275344537102175 -12.78521899523389,-3.4275344537102175 c-5.0248807405315485,0 -9.626769554984941,1.1873409710722616 -13.80237467739848,3.5594612282738023 c-4.177251005394389,2.3721202572015407 -6.603282519165598,5.579349805815286 -7.281386307275327,9.620407803369746 h39.963684657990996 C742.2256982764743,513.2769268590098 740.1946786781066,510.0299911937798 736.6971773438028,507.7436873821681 z" id="svg_14"/>
</g></g></svg>