<svg xmlns="http://www.w3.org/2000/svg" xmlns:xlink="http://www.w3.org/1999/xlink" version="1.1" xml:space="preserve" width="97.12698097930615" height="131.58730159931565"><rect id="backgroundrect" width="100%" height="100%" x="0" y="0" fill="none" stroke="none" class=""/>
<linearGradient id="SVGID_1_" gradientUnits="userSpaceOnUse" x1="15.614999771118164" y1="106.52400207519531" x2="91.63390350341797" y2="30.50510025024414" gradientTransform="matrix(1 0 0 -1 0 132)">
	<stop offset="0" style="stop-color:#00FFFF"/>
	<stop offset="1" style="stop-color:#1FB8E5"/>
</linearGradient>



<g class="currentLayer"><title>Layer 1</title><path style="fill:url(#SVGID_1_);" d="M95.661,65.638c-1.398-9.854-6.09-18.534-14.048-25.961  C69.836,28.688,65.747,24.747,63.247,20.12C59.942,14,61.454,5.208,67.338,0.918c0.175-0.128,0.258-0.358,0.629-0.897  c-1.538,0-2.773-0.052-4.001,0.008c-9.461,0.467-16.502,4.674-20.713,12.088c-2.8,4.93-4.436,10.393-6.624,15.608  c-1.233,2.939-2.078,6.11-3.891,8.731c-3.538,5.117-11.144,4.62-14.254-0.729c-0.693-1.191-1.2-2.585-1.302-3.916  c-0.201-2.624-0.059-5.269-0.059-7.843C2.84,40.646-3.897,59.247,2.317,80.503c5.712,19.538,23.993,32.112,39.06,32.112  c1.227,0,11.087-0.032,12.281-0.08c-2.367,13.273-8.029,15.202-11.104,17.687c5.265,0,10.252-1.496,15.472-3.746  c7.929-3.417,38.04-16.038,38.04-49.305C96.283,72.899,96.192,69.386,95.661,65.638z M24.442,79.852  c-4.286,0-7.761-3.475-7.761-7.761s3.475-7.761,7.761-7.761s7.761,3.475,7.761,7.761S28.728,79.852,24.442,79.852z M47.725,79.852  c-4.286,0-7.761-3.475-7.761-7.761s3.475-7.761,7.761-7.761s7.761,3.475,7.761,7.761S52.012,79.852,47.725,79.852z M71.009,79.852  c-4.286,0-7.761-3.475-7.761-7.761s3.475-7.761,7.761-7.761s7.761,3.475,7.761,7.761C78.77,76.377,75.295,79.852,71.009,79.852z" id="svg_1"/><g id="svg_2">
	<path style="fill:#69FFF7;" d="M31.333,68.531c0.552,1.067,0.87,2.275,0.87,3.56c0,4.286-3.475,7.761-7.761,7.761   c-2.138,0-4.074-0.865-5.478-2.264c1.291,2.494,3.89,4.201,6.892,4.201c4.286,0,7.761-3.475,7.761-7.761   C33.616,71.88,32.744,69.936,31.333,68.531z" id="svg_3"/>
	<path style="fill:#69FFF7;" d="M77.9,68.531c0.552,1.067,0.87,2.275,0.87,3.56c0,4.286-3.475,7.761-7.761,7.761   c-2.138,0-4.074-0.865-5.478-2.264c1.291,2.494,3.89,4.201,6.892,4.201c4.286,0,7.761-3.475,7.761-7.761   C80.183,71.88,79.31,69.936,77.9,68.531z" id="svg_4"/>
	<path style="fill:#69FFF7;" d="M54.617,68.531c0.552,1.067,0.87,2.275,0.87,3.56c0,4.286-3.475,7.761-7.761,7.761   c-2.138,0-4.074-0.865-5.478-2.264c1.291,2.494,3.89,4.201,6.892,4.201c4.286,0,7.761-3.475,7.761-7.761   C56.9,71.88,56.027,69.936,54.617,68.531z" id="svg_5"/>
</g></g></svg>