<svg xmlns="http://www.w3.org/2000/svg" xmlns:xlink="http://www.w3.org/1999/xlink" version="1.1" xml:space="preserve" width="360" height="260"><rect id="backgroundrect" width="100%" height="100%" x="0" y="0" fill="none" stroke="none" class=""/>

<g class="currentLayer"><title>Layer 1</title><path style="fill:#01CA6A;" d="M349.65744659805296,0.680272102355957 h-59.51487207603455 c-75.24683181381225,0 -81.184182472229,73.83048696899414 -111.82010406684876,73.83048696899414 c-0.07068274593353284,0 -0.11107288646698013,0.046051950454711964 -0.11107288646698013,0.11052468109130867 c0,-0.06447273063659677 -0.05048767566680912,-0.11052468109130867 -0.11107288646698013,-0.11052468109130867 C152.68482875156403,74.5107590713501 141.52705242919922,0.680272102355957 66.28022061538697,0.680272102355957 H6.735055933952339 C3.0191630048751854,0.680272102355957 0,3.4341787395477312 0,6.832812683105475 v245.63189333534243 c0,3.398633943557741 3.0191630048751854,6.143330190658576 6.735055933952339,6.143330190658576 h73.97454238700867 c3.6452101831436177,0 6.603787977218634,-2.6986442966461204 6.603787977218634,-6.023595119476323 v-58.58729136848449 c0,-18.918141246795653 18.96317098045349,-27.271965059280397 29.89880152988434,-27.271965059280397 h23.35559876346588 c-0.07068274593353284,33.12977315711975 -2.4335059671401993,50.94266759300232 -17.933222396850585,56.3491665763855 c0,7.9209354782104535 0,35.54289536094665 0,35.54289536094665 h55.55663830375671 h55.55663830375671 c0,0 0,-27.612749492645264 0,-35.54289536094665 c-15.49971642971039,-5.39728859329224 -17.862539650917054,-23.219393419265746 -17.933222396850585,-56.3491665763855 h23.35559876346588 c10.935630549430847,0 29.89880152988434,9.394597892761231 29.89880152988434,27.271965059280397 v58.58729136848449 c0,3.324950822830202 2.9585777940750138,6.023595119476323 6.603787977218634,6.023595119476323 h73.97454238700867 c3.7259904642105126,0 6.735055933952339,-2.753906637191774 6.735055933952339,-6.143330190658576 V6.832812683105475 C356.3925025320053,3.4341787395477312 353.37333952713016,0.680272102355957 349.65744659805296,0.680272102355957 zM178.20130003356934,91.7433989315033 c18.468391758918763,0 33.44303636169434,13.659008504867554 33.44303636169434,30.504811981201176 s-14.974644602775575,30.504811981201176 -33.44303636169434,30.504811981201176 s-33.44303636169434,-13.659008504867554 -33.44303636169434,-30.504811981201176 C144.758263671875,105.39319704627991 159.73290827465058,91.7433989315033 178.20130003356934,91.7433989315033 zM178.20130003356934,192.09059897232055 c-16.065178397178652,0 -17.680784018516544,-19.664182844161985 -17.812051975250245,-25.36541431045532 h35.62410395050049 C195.88208405208587,172.42641612815856 194.26647843074798,192.09059897232055 178.20130003356934,192.09059897232055 z" id="svg_1" class="" transform="translate(0.680272102355957,0) "/></g></svg>